<svg width="487" height="454" viewBox="0 0 487 454" fill="none" xmlns="http://www.w3.org/2000/svg">
<g id="Group 17">
<path id="Path 3" fill-rule="evenodd" clip-rule="evenodd" d="M238.03 23.5132C185.353 7.01158 131.189 -20.5118 75.7356 29.7601C20.2827 80.032 -14.5801 124.07 7.93327 181.049C30.4467 238.029 122.344 202.538 149.046 253.465C175.747 304.391 117.078 350.61 142.372 395.934C167.665 441.258 187.114 470.307 268.399 441.488C349.684 412.67 342.189 339.343 404.002 296.404C465.816 253.465 532.694 189.183 440.914 74.4804C349.134 -40.2218 290.707 40.0148 238.03 23.5132Z" stroke="#96A9C6"/>
<path id="Path 3 Copy" fill-rule="evenodd" clip-rule="evenodd" d="M245.045 50.2795C202.143 36.8811 158.03 14.5336 112.867 55.3517C67.7045 96.1698 39.311 131.926 57.6467 178.19C75.9824 224.455 150.827 195.639 172.573 236.988C194.32 278.337 146.538 315.865 167.138 352.665C187.737 389.466 203.577 413.052 269.778 389.653C335.979 366.254 329.876 306.716 380.218 271.852C430.561 236.988 485.029 184.794 410.28 91.6622C335.532 -1.4699 287.947 63.678 245.045 50.2795Z" stroke="#96A9C6"/>
<path id="Path 3 Copy 2" fill-rule="evenodd" clip-rule="evenodd" d="M257.391 67.8926C222.635 56.9767 186.898 38.7699 150.31 72.0249C113.723 105.28 90.7203 134.411 105.575 172.103C120.429 209.796 181.062 186.319 198.68 220.006C216.297 253.694 177.588 284.269 194.276 314.251C210.965 344.233 223.797 363.448 277.428 344.385C331.059 325.321 326.114 276.815 366.898 248.411C407.683 220.006 451.808 177.484 391.253 101.608C330.697 25.7316 292.147 78.8085 257.391 67.8926Z" stroke="#96A9C6"/>
<path id="Path 3 Copy 5" fill-rule="evenodd" clip-rule="evenodd" d="M270.09 89.9539C242.068 81.192 213.255 66.5778 183.756 93.2709C154.258 119.964 135.712 143.347 147.688 173.601C159.664 203.856 208.55 185.012 222.754 212.052C236.958 239.092 205.749 263.634 219.204 287.699C232.659 311.765 243.005 327.189 286.245 311.887C329.485 296.586 325.499 257.651 358.381 234.852C391.263 212.052 426.839 177.92 378.016 117.016C329.193 56.1123 298.112 98.7158 270.09 89.9539Z" stroke="#96A9C6"/>
<path id="Path 3 Copy 4" fill-rule="evenodd" clip-rule="evenodd" d="M273.12 103.762C250.203 96.6068 226.639 84.6719 202.514 106.471C178.389 128.271 163.222 147.367 173.016 172.074C182.811 196.782 222.791 181.393 234.407 203.476C246.024 225.559 220.5 245.601 231.504 265.255C242.508 284.908 250.969 297.505 286.332 285.008C321.695 272.512 318.435 240.715 345.327 222.095C372.219 203.476 401.314 175.601 361.385 125.863C321.456 76.1251 296.037 110.918 273.12 103.762Z" stroke="#96A9C6"/>
<path id="Path 3 Copy 3" fill-rule="evenodd" clip-rule="evenodd" d="M279.571 113.919C260.999 108.115 241.902 98.4328 222.35 116.117C202.799 133.801 190.507 149.292 198.445 169.336C206.382 189.38 238.783 176.895 248.198 194.809C257.612 212.724 236.927 228.982 245.844 244.926C254.762 260.87 261.619 271.088 290.279 260.95C318.938 250.813 316.296 225.019 338.089 209.914C359.883 194.809 383.463 172.197 351.104 131.848C318.744 91.4994 298.144 119.724 279.571 113.919Z" stroke="#96A9C6"/>
</g>
</svg>
