<svg width="883" height="822" viewBox="0 0 883 822" fill="none" xmlns="http://www.w3.org/2000/svg">
<g id="Group 17">
<path id="Path 3" fill-rule="evenodd" clip-rule="evenodd" d="M431.564 41.8425C335.876 11.906 237.487 -38.0258 136.757 53.1754C36.0269 144.377 -27.3013 224.268 13.5943 327.638C54.4898 431.008 221.421 366.623 269.924 459.011C318.427 551.399 211.855 635.248 257.801 717.473C303.746 799.698 339.075 852.397 486.728 800.116C634.382 747.834 620.768 614.808 733.052 536.909C845.335 459.011 966.819 342.393 800.102 134.305C633.384 -73.7829 527.251 71.7791 431.564 41.8425Z" stroke="#96A9C6"/>
<path id="Path 3 Copy" fill-rule="evenodd" clip-rule="evenodd" d="M443.902 91.1721C365.919 66.8578 285.733 26.3035 203.64 100.377C121.546 174.45 69.935 239.337 103.264 323.294C136.593 407.25 272.64 354.957 312.169 429.994C351.697 505.031 264.844 573.134 302.288 639.916C339.733 706.699 368.525 749.5 488.86 707.038C609.195 664.575 598.1 556.532 689.61 493.263C781.119 429.994 880.126 335.278 744.254 166.27C608.382 -2.73829 521.885 115.486 443.902 91.1721Z" stroke="#96A9C6"/>
<path id="Path 3 Copy 2" fill-rule="evenodd" clip-rule="evenodd" d="M466.947 123.046C403.844 103.222 338.958 70.1573 272.529 130.55C206.099 190.943 164.336 243.847 191.306 312.298C218.275 380.749 328.363 338.114 360.35 399.293C392.336 460.471 322.054 515.996 352.354 570.445C382.654 624.894 405.953 659.791 503.327 625.17C600.701 590.55 591.723 502.461 665.772 450.877C739.82 399.293 819.936 322.069 709.99 184.274C600.043 46.4791 530.051 142.87 466.947 123.046Z" stroke="#96A9C6"/>
<path id="Path 3 Copy 5" fill-rule="evenodd" clip-rule="evenodd" d="M490.21 162.666C439.271 146.785 386.894 120.297 333.27 168.678C279.647 217.06 245.934 259.441 267.705 314.278C289.475 369.114 378.341 334.958 404.162 383.969C429.982 432.98 373.249 477.461 397.708 521.08C422.167 564.7 440.974 592.656 519.577 564.921C598.181 537.187 590.933 466.618 650.707 425.293C710.482 383.969 775.153 322.105 686.401 211.717C597.649 101.329 541.149 178.547 490.21 162.666Z" stroke="#96A9C6"/>
<path id="Path 3 Copy 4" fill-rule="evenodd" clip-rule="evenodd" d="M495.18 187.732C453.582 174.735 410.809 153.057 367.018 192.652C323.227 232.246 295.697 266.931 313.475 311.809C331.254 356.686 403.825 328.734 424.91 368.844C445.996 408.954 399.666 445.357 419.64 481.054C439.614 516.752 454.972 539.631 519.162 516.933C583.352 494.235 577.434 436.482 626.247 402.663C675.061 368.844 727.874 318.215 655.396 227.874C582.918 137.533 536.779 200.728 495.18 187.732Z" stroke="#96A9C6"/>
<path id="Path 3 Copy 3" fill-rule="evenodd" clip-rule="evenodd" d="M506.992 206.395C473.214 195.844 438.482 178.246 402.923 210.389C367.365 242.532 345.009 270.688 359.446 307.12C373.882 343.552 432.811 320.86 449.932 353.421C467.054 385.982 429.434 415.534 445.653 444.513C461.872 473.492 474.343 492.065 526.466 473.64C578.589 455.214 573.783 408.33 613.42 380.875C653.057 353.421 695.942 312.32 637.089 238.982C578.237 165.644 540.771 216.945 506.992 206.395Z" stroke="#96A9C6"/>
</g>
</svg>
